<mxfile host="app.diagrams.net" modified="2025-03-01T07:58:31.820Z" agent="Mozilla/5.0 (Macintosh; Intel Mac OS X 10_15_7) AppleWebKit/537.36 (KHTML, like Gecko) Chrome/131.0.0.0 Safari/537.36" etag="yu8gDdX48pCCrgA29yXD" version="24.5.2" type="device">
  <diagram name="Page-1" id="vJM4Qb-zHC_A3mGNi00e">
    <mxGraphModel dx="984" dy="563" grid="1" gridSize="10" guides="1" tooltips="1" connect="1" arrows="1" fold="1" page="1" pageScale="1" pageWidth="827" pageHeight="1169" math="0" shadow="0">
      <root>
        <mxCell id="0" />
        <mxCell id="1" parent="0" />
        <mxCell id="TsI0AVuuTsxBcq-2MmNG-1" value="C++/SYCL Code" style="rounded=1;whiteSpace=wrap;html=1;fillColor=#d5e8d4;strokeColor=#82b366;" vertex="1" parent="1">
          <mxGeometry x="90" y="110" width="120" height="60" as="geometry" />
        </mxCell>
        <mxCell id="TsI0AVuuTsxBcq-2MmNG-2" value="Single Source, Single Pass Compiler" style="rounded=1;whiteSpace=wrap;html=1;fillColor=#dae8fc;strokeColor=#6c8ebf;" vertex="1" parent="1">
          <mxGeometry x="260" y="110" width="120" height="60" as="geometry" />
        </mxCell>
        <mxCell id="TsI0AVuuTsxBcq-2MmNG-3" value="Host Binary" style="rounded=1;whiteSpace=wrap;html=1;fillColor=#e1d5e7;strokeColor=#9673a6;" vertex="1" parent="1">
          <mxGeometry x="430" y="110" width="120" height="60" as="geometry" />
        </mxCell>
        <mxCell id="TsI0AVuuTsxBcq-2MmNG-4" value="Device Code as LLVM IR" style="rounded=1;whiteSpace=wrap;html=1;" vertex="1" parent="1">
          <mxGeometry x="440" y="160" width="100" height="30" as="geometry" />
        </mxCell>
        <mxCell id="TsI0AVuuTsxBcq-2MmNG-5" value="" style="endArrow=classic;html=1;rounded=0;exitX=1;exitY=0.5;exitDx=0;exitDy=0;entryX=0;entryY=0.5;entryDx=0;entryDy=0;" edge="1" parent="1" source="TsI0AVuuTsxBcq-2MmNG-1" target="TsI0AVuuTsxBcq-2MmNG-2">
          <mxGeometry width="50" height="50" relative="1" as="geometry">
            <mxPoint x="390" y="320" as="sourcePoint" />
            <mxPoint x="440" y="270" as="targetPoint" />
          </mxGeometry>
        </mxCell>
        <mxCell id="TsI0AVuuTsxBcq-2MmNG-6" value="" style="endArrow=classic;html=1;rounded=0;exitX=1;exitY=0.5;exitDx=0;exitDy=0;entryX=0;entryY=0.5;entryDx=0;entryDy=0;" edge="1" parent="1">
          <mxGeometry width="50" height="50" relative="1" as="geometry">
            <mxPoint x="380" y="139.5" as="sourcePoint" />
            <mxPoint x="430" y="139.5" as="targetPoint" />
          </mxGeometry>
        </mxCell>
      </root>
    </mxGraphModel>
  </diagram>
</mxfile>
